<svg width="465" height="171" viewBox="0 0 465 171" fill="none" xmlns="http://www.w3.org/2000/svg">
<path d="M4.512 47V14.36H14.448C16.88 14.36 18.8 14.712 20.208 15.416C21.648 16.12 22.672 17.112 23.28 18.392C23.92 19.672 24.24 21.176 24.24 22.904V24.248C24.24 26.776 23.152 28.712 20.976 30.056C22.512 30.664 23.68 31.544 24.48 32.696C25.28 33.848 25.68 35.224 25.68 36.824V38.168C25.68 39.928 25.36 41.48 24.72 42.824C24.08 44.136 23.024 45.16 21.552 45.896C20.08 46.632 18.112 47 15.648 47H4.512ZM14.448 19.64H10.272V27.8H14.448C15.728 27.8 16.688 27.512 17.328 26.936C18 26.328 18.336 25.512 18.336 24.488V22.904C18.336 21.88 18 21.08 17.328 20.504C16.688 19.928 15.728 19.64 14.448 19.64ZM15.648 33.08H10.272V41.72H15.648C16.992 41.72 18.016 41.4 18.72 40.76C19.424 40.12 19.776 39.256 19.776 38.168V36.584C19.776 35.496 19.424 34.648 18.72 34.04C18.016 33.4 16.992 33.08 15.648 33.08ZM31.7261 40.136V11.48H37.2461V40.136C37.2461 40.616 37.3581 41.08 37.5821 41.528C37.8381 41.944 38.3181 42.152 39.0221 42.152H39.7901V47.24H38.4461C36.6221 47.24 35.2301 46.888 34.2701 46.184C33.3101 45.48 32.6381 44.584 32.2541 43.496C31.9021 42.408 31.7261 41.288 31.7261 40.136ZM59.6318 47V43.784C58.1598 45.064 56.7838 46.008 55.5038 46.616C54.2238 47.192 52.9278 47.48 51.6158 47.48C49.4398 47.48 47.7598 46.744 46.5758 45.272C45.3918 43.768 44.7998 41.672 44.7998 38.984V22.664H50.3198V38.312C50.3198 41 51.3118 42.344 53.2958 42.344C54.0958 42.344 54.9598 42.152 55.8878 41.768C56.8478 41.384 57.9998 40.648 59.3438 39.56V22.664H64.8638V47H59.6318ZM90.9439 45.608C89.2799 46.28 87.7119 46.76 86.2399 47.048C84.7679 47.336 83.3759 47.48 82.0639 47.48C78.4479 47.48 75.7119 46.456 73.8559 44.408C71.9999 42.36 71.0719 39.64 71.0719 36.248V33.368C71.0719 31.096 71.4879 29.128 72.3199 27.464C73.1519 25.8 74.3359 24.504 75.8719 23.576C77.4079 22.648 79.2159 22.184 81.2959 22.184C82.9919 22.184 84.5759 22.536 86.0479 23.24C87.5519 23.912 88.7679 24.984 89.6959 26.456C90.6559 27.896 91.1359 29.752 91.1359 32.024C91.1359 32.696 91.0879 33.416 90.9919 34.184C90.8959 34.92 90.7359 35.704 90.5119 36.536H76.3999C76.4639 38.52 76.9599 40.008 77.8879 41C78.8159 41.992 80.3039 42.488 82.3519 42.488C83.4399 42.488 84.5599 42.36 85.7119 42.104C86.8959 41.848 88.1119 41.464 89.3599 40.952L90.9439 45.608ZM81.2959 26.84C79.8239 26.84 78.6719 27.32 77.8399 28.28C77.0399 29.208 76.5759 30.552 76.4479 32.312H85.6639C85.6959 32.152 85.7119 32.008 85.7119 31.88C85.7119 31.72 85.7119 31.576 85.7119 31.448C85.7119 29.912 85.2799 28.76 84.4159 27.992C83.5519 27.224 82.5119 26.84 81.2959 26.84ZM113.585 20.6V22.664H128.321V47H122.801V27.464H113.585V47H108.065V27.464H104.129V22.664H108.065V20.6C108.065 18.712 108.401 17.048 109.073 15.608C109.745 14.168 110.817 13.048 112.289 12.248C113.793 11.416 115.745 11 118.145 11C119.457 11 120.865 11.16 122.369 11.48C123.873 11.768 125.441 12.312 127.073 13.112L125.057 17.624C123.617 17.08 122.353 16.712 121.265 16.52C120.177 16.296 119.185 16.184 118.289 16.184C116.817 16.184 115.665 16.504 114.833 17.144C114.001 17.752 113.585 18.904 113.585 20.6ZM142.702 42.68C143.886 42.68 144.862 42.488 145.63 42.104C146.398 41.688 146.782 41.08 146.782 40.28C146.782 39.576 146.526 39.032 146.014 38.648C145.534 38.232 144.654 37.864 143.374 37.544L140.638 36.824C138.526 36.28 136.958 35.368 135.934 34.088C134.942 32.808 134.446 31.288 134.446 29.528C134.446 27.448 135.166 25.704 136.606 24.296C138.046 22.888 140.27 22.184 143.278 22.184C144.494 22.184 145.774 22.328 147.118 22.616C148.462 22.904 149.87 23.368 151.342 24.008L149.758 28.712C148.414 28.072 147.198 27.624 146.11 27.368C145.022 27.112 144.062 26.984 143.23 26.984C140.958 26.984 139.822 27.752 139.822 29.288C139.822 29.896 140.014 30.376 140.398 30.728C140.814 31.08 141.566 31.4 142.654 31.688L145.39 32.408C147.726 33.016 149.422 33.944 150.478 35.192C151.566 36.44 152.11 38.008 152.11 39.896C152.11 42.136 151.342 43.96 149.806 45.368C148.302 46.776 145.918 47.48 142.654 47.48C139.87 47.48 136.942 46.84 133.87 45.56L135.358 41C136.862 41.608 138.222 42.04 139.438 42.296C140.654 42.552 141.742 42.68 142.702 42.68ZM169.68 27.32C168.88 27.32 167.968 27.512 166.944 27.896C165.92 28.28 164.704 29.032 163.296 30.152V47H157.776V11.48H163.296V25.688C164.768 24.44 166.144 23.544 167.424 23C168.704 22.456 170.016 22.184 171.36 22.184C173.696 22.184 175.472 22.936 176.688 24.44C177.904 25.912 178.512 27.992 178.512 30.68V47H172.992V31.352C172.992 28.664 171.888 27.32 169.68 27.32Z" fill="#767586"/>
<path d="M4.032 147H2.88L31.584 79.8L32.64 79.32L56.832 147H48.672L41.184 125.88H13.152L4.032 147ZM28.608 90.168L13.536 124.92H40.896L28.608 90.168ZM61.6125 113.592C61.6125 103.16 64.4285 94.872 70.0605 88.728C75.6925 82.52 82.7965 79.416 91.3725 79.416C100.205 79.416 107.245 81.72 112.493 86.328C118.253 91.512 121.133 100.6 121.133 113.592C121.133 122.936 118.829 130.552 114.221 136.44C109.677 142.328 103.725 145.848 96.3645 147C100.397 147.896 105.261 150.584 110.957 155.064C113.133 156.792 115.501 158.52 118.061 160.248C123.821 164.088 130.829 166.008 139.085 166.008V166.968C127.437 166.968 118.381 165.688 111.917 163.128C106.477 160.888 102.541 158.2 100.109 155.064C99.0205 153.656 98.0285 152.376 97.1325 151.224C96.3005 150.136 95.4365 149.208 94.5405 148.44C93.6445 147.736 92.5885 147.384 91.3725 147.384C86.8925 147.384 82.9565 146.872 79.5645 145.848C76.1725 144.824 73.0685 143.096 70.2525 140.664C64.4925 135.608 61.6125 126.584 61.6125 113.592ZM69.5805 113.4C69.5805 135.416 76.8445 146.424 91.3725 146.424C97.6445 146.424 102.829 143.48 106.925 137.592C111.085 131.704 113.165 123.64 113.165 113.4C113.165 91.384 105.901 80.376 91.3725 80.376C85.1005 80.376 79.8845 83.32 75.7245 89.208C71.6285 95.096 69.5805 103.16 69.5805 113.4ZM177.865 79.8H179.113V118.2C179.113 128.248 177.129 135.64 173.161 140.376C169.193 145.048 164.009 147.384 157.609 147.384C153.577 147.384 150.153 147.032 147.337 146.328C144.521 145.56 141.865 144.184 139.369 142.2C134.249 138.232 131.689 130.232 131.689 118.2V79.8H139.657V118.104C139.657 129.752 141.417 137.528 144.937 141.432C146.729 143.352 148.585 144.664 150.505 145.368C152.489 146.072 154.857 146.424 157.609 146.424C163.753 146.424 168.649 144.184 172.297 139.704C176.009 135.16 177.865 127.96 177.865 118.104V79.8ZM187.501 147H186.349L215.053 79.8L216.109 79.32L240.301 147H232.141L224.653 125.88H196.621L187.501 147ZM212.077 90.168L197.005 124.92H224.365L212.077 90.168ZM248.97 80.568C256.394 80.056 262.954 79.8 268.65 79.8C284.458 79.8 292.362 85.08 292.362 95.64C292.362 100.12 291.274 104.12 289.098 107.64C286.922 111.16 283.178 113.496 277.866 114.648L297.066 147H288.138L269.322 115.224H256.938V147H248.97V80.568ZM268.65 80.76C264.938 80.76 261.034 80.984 256.938 81.432V114.264H271.146C280.17 113.88 284.682 107.736 284.682 95.832C284.682 90.968 283.338 87.256 280.65 84.696C277.962 82.072 273.962 80.76 268.65 80.76ZM304.751 80.76V79.8H321.839V80.76H317.135V146.04H321.839V147H304.751V146.04H309.167V80.76H304.751ZM381.49 79.8H382.738V118.2C382.738 128.248 380.754 135.64 376.786 140.376C372.818 145.048 367.634 147.384 361.234 147.384C357.202 147.384 353.778 147.032 350.962 146.328C348.146 145.56 345.49 144.184 342.994 142.2C337.874 138.232 335.314 130.232 335.314 118.2V79.8H343.282V118.104C343.282 129.752 345.042 137.528 348.562 141.432C350.354 143.352 352.21 144.664 354.13 145.368C356.114 146.072 358.482 146.424 361.234 146.424C367.378 146.424 372.274 144.184 375.922 139.704C379.634 135.16 381.49 127.96 381.49 118.104V79.8ZM395.519 147H394.271L402.623 79.8H405.791L425.951 141.912L446.015 79.8H449.183L457.535 147H449.567L442.943 93.24L425.567 147H419.519L401.951 93.912L395.519 147Z" fill="white"/>
</svg>
